<mxfile host="app.diagrams.net" agent="Mozilla/5.0 (Windows NT 10.0; Win64; x64) AppleWebKit/537.36 (KHTML, like Gecko) Chrome/133.0.0.0 Safari/537.36" version="26.0.15">
  <diagram name="P치gina-1" id="tJJ5zeastkky_1u0LAri">
    <mxGraphModel grid="1" page="1" gridSize="10" guides="1" tooltips="1" connect="1" arrows="1" fold="1" pageScale="1" pageWidth="827" pageHeight="1169" math="0" shadow="0">
      <root>
        <mxCell id="0" />
        <mxCell id="1" parent="0" />
        <mxCell id="YrdlUgzSevwwkFBSTyoV-1" value="" style="whiteSpace=wrap;html=1;aspect=fixed;" vertex="1" parent="1">
          <mxGeometry x="130" y="60" width="610" height="610" as="geometry" />
        </mxCell>
        <mxCell id="YrdlUgzSevwwkFBSTyoV-3" value="Blibliotec치ria" style="shape=umlActor;verticalLabelPosition=bottom;verticalAlign=top;html=1;outlineConnect=0;" vertex="1" parent="1">
          <mxGeometry x="850" y="180" width="30" height="60" as="geometry" />
        </mxCell>
        <mxCell id="YrdlUgzSevwwkFBSTyoV-9" value="Usu치rio" style="shape=umlActor;verticalLabelPosition=bottom;verticalAlign=top;html=1;outlineConnect=0;" vertex="1" parent="1">
          <mxGeometry x="20" y="60" width="30" height="60" as="geometry" />
        </mxCell>
        <mxCell id="YrdlUgzSevwwkFBSTyoV-10" value="Realizar login" style="ellipse;whiteSpace=wrap;html=1;" vertex="1" parent="1">
          <mxGeometry x="270" y="80" width="100" height="60" as="geometry" />
        </mxCell>
        <mxCell id="YrdlUgzSevwwkFBSTyoV-11" value="Cadastrar usu치rio" style="ellipse;whiteSpace=wrap;html=1;" vertex="1" parent="1">
          <mxGeometry x="470" y="110" width="100" height="60" as="geometry" />
        </mxCell>
        <mxCell id="YrdlUgzSevwwkFBSTyoV-12" value="Cadastrar livros" style="ellipse;whiteSpace=wrap;html=1;" vertex="1" parent="1">
          <mxGeometry x="470" y="210" width="100" height="60" as="geometry" />
        </mxCell>
        <mxCell id="YrdlUgzSevwwkFBSTyoV-13" value="Sistema de mensagens" style="shape=umlActor;verticalLabelPosition=bottom;verticalAlign=top;html=1;outlineConnect=0;" vertex="1" parent="1">
          <mxGeometry x="850" y="470" width="30" height="60" as="geometry" />
        </mxCell>
        <mxCell id="YrdlUgzSevwwkFBSTyoV-14" value="Alertar atrasos" style="ellipse;whiteSpace=wrap;html=1;" vertex="1" parent="1">
          <mxGeometry x="510" y="500" width="100" height="60" as="geometry" />
        </mxCell>
        <mxCell id="YrdlUgzSevwwkFBSTyoV-17" value="Definir prazo" style="ellipse;whiteSpace=wrap;html=1;" vertex="1" parent="1">
          <mxGeometry x="470" y="300" width="100" height="60" as="geometry" />
        </mxCell>
        <mxCell id="YrdlUgzSevwwkFBSTyoV-18" value="Alugar livros" style="ellipse;whiteSpace=wrap;html=1;" vertex="1" parent="1">
          <mxGeometry x="270" y="180" width="100" height="60" as="geometry" />
        </mxCell>
        <mxCell id="YrdlUgzSevwwkFBSTyoV-22" value="" style="endArrow=none;html=1;rounded=0;exitX=0.5;exitY=0.5;exitDx=0;exitDy=0;exitPerimeter=0;" edge="1" parent="1" source="YrdlUgzSevwwkFBSTyoV-9" target="YrdlUgzSevwwkFBSTyoV-10">
          <mxGeometry relative="1" as="geometry">
            <mxPoint x="120" y="239.5" as="sourcePoint" />
            <mxPoint x="280" y="239.5" as="targetPoint" />
          </mxGeometry>
        </mxCell>
        <mxCell id="YrdlUgzSevwwkFBSTyoV-24" value="" style="endArrow=none;html=1;rounded=0;exitX=0.5;exitY=0.5;exitDx=0;exitDy=0;exitPerimeter=0;" edge="1" parent="1" source="YrdlUgzSevwwkFBSTyoV-9" target="YrdlUgzSevwwkFBSTyoV-18">
          <mxGeometry relative="1" as="geometry">
            <mxPoint x="105" y="240" as="sourcePoint" />
            <mxPoint x="264" y="201" as="targetPoint" />
          </mxGeometry>
        </mxCell>
        <mxCell id="YrdlUgzSevwwkFBSTyoV-25" value="" style="endArrow=none;html=1;rounded=0;entryX=0.5;entryY=0.5;entryDx=0;entryDy=0;entryPerimeter=0;exitX=1;exitY=0.5;exitDx=0;exitDy=0;" edge="1" parent="1" source="YrdlUgzSevwwkFBSTyoV-11" target="YrdlUgzSevwwkFBSTyoV-3">
          <mxGeometry relative="1" as="geometry">
            <mxPoint x="560" y="140" as="sourcePoint" />
            <mxPoint x="732" y="195" as="targetPoint" />
          </mxGeometry>
        </mxCell>
        <mxCell id="YrdlUgzSevwwkFBSTyoV-26" value="" style="endArrow=none;html=1;rounded=0;entryX=0.5;entryY=0.5;entryDx=0;entryDy=0;entryPerimeter=0;" edge="1" parent="1" source="YrdlUgzSevwwkFBSTyoV-12" target="YrdlUgzSevwwkFBSTyoV-3">
          <mxGeometry relative="1" as="geometry">
            <mxPoint x="580" y="150" as="sourcePoint" />
            <mxPoint x="745" y="210" as="targetPoint" />
          </mxGeometry>
        </mxCell>
        <mxCell id="YrdlUgzSevwwkFBSTyoV-27" value="" style="endArrow=none;html=1;rounded=0;entryX=0.5;entryY=0.5;entryDx=0;entryDy=0;entryPerimeter=0;" edge="1" parent="1" target="YrdlUgzSevwwkFBSTyoV-3">
          <mxGeometry relative="1" as="geometry">
            <mxPoint x="570" y="331" as="sourcePoint" />
            <mxPoint x="737" y="300" as="targetPoint" />
          </mxGeometry>
        </mxCell>
        <mxCell id="YrdlUgzSevwwkFBSTyoV-28" value="" style="endArrow=none;html=1;rounded=0;exitX=1;exitY=0.5;exitDx=0;exitDy=0;entryX=0.5;entryY=0.5;entryDx=0;entryDy=0;entryPerimeter=0;" edge="1" parent="1" source="YrdlUgzSevwwkFBSTyoV-14" target="YrdlUgzSevwwkFBSTyoV-13">
          <mxGeometry relative="1" as="geometry">
            <mxPoint x="530" y="440" as="sourcePoint" />
            <mxPoint x="970" y="580" as="targetPoint" />
          </mxGeometry>
        </mxCell>
        <mxCell id="YrdlUgzSevwwkFBSTyoV-37" value="&amp;lt;&amp;lt;extend&amp;gt;&amp;gt;" style="html=1;verticalAlign=bottom;labelBackgroundColor=none;endArrow=open;endFill=0;dashed=1;rounded=0;" edge="1" parent="1" source="YrdlUgzSevwwkFBSTyoV-11">
          <mxGeometry width="160" relative="1" as="geometry">
            <mxPoint x="392.13" y="160" as="sourcePoint" />
            <mxPoint x="369.99885245901635" y="110" as="targetPoint" />
          </mxGeometry>
        </mxCell>
        <mxCell id="YrdlUgzSevwwkFBSTyoV-39" value="&amp;lt;&amp;lt;extend&amp;gt;&amp;gt;" style="html=1;verticalAlign=bottom;labelBackgroundColor=none;endArrow=open;endFill=0;dashed=1;rounded=0;" edge="1" parent="1">
          <mxGeometry width="160" relative="1" as="geometry">
            <mxPoint x="473" y="231" as="sourcePoint" />
            <mxPoint x="369.99885245901635" y="210" as="targetPoint" />
          </mxGeometry>
        </mxCell>
        <mxCell id="YrdlUgzSevwwkFBSTyoV-40" value="&amp;lt;&amp;lt;extend&amp;gt;&amp;gt;" style="html=1;verticalAlign=bottom;labelBackgroundColor=none;endArrow=open;endFill=0;dashed=1;rounded=0;entryX=0;entryY=0.5;entryDx=0;entryDy=0;exitX=0.736;exitY=1;exitDx=0;exitDy=0;exitPerimeter=0;" edge="1" parent="1" source="YrdlUgzSevwwkFBSTyoV-18" target="YrdlUgzSevwwkFBSTyoV-17">
          <mxGeometry width="160" relative="1" as="geometry">
            <mxPoint x="453" y="250.5" as="sourcePoint" />
            <mxPoint x="360" y="230" as="targetPoint" />
          </mxGeometry>
        </mxCell>
        <mxCell id="YrdlUgzSevwwkFBSTyoV-41" value="&amp;lt;&amp;lt;include&amp;gt;&amp;gt;" style="html=1;verticalAlign=bottom;labelBackgroundColor=none;endArrow=open;endFill=0;dashed=1;rounded=0;" edge="1" parent="1" source="YrdlUgzSevwwkFBSTyoV-17" target="YrdlUgzSevwwkFBSTyoV-14">
          <mxGeometry width="160" relative="1" as="geometry">
            <mxPoint x="570" y="330" as="sourcePoint" />
            <mxPoint x="730" y="330" as="targetPoint" />
          </mxGeometry>
        </mxCell>
      </root>
    </mxGraphModel>
  </diagram>
</mxfile>
